HIERARCHY
ROOT Pelvis
{
	OFFSET 0.000000 0.000000 0.000000
	CHANNELS 6 Xposition Yposition Zposition Xrotation Yrotation Zrotation
	JOINT LeftUpLeg_virtual
	{
		OFFSET 0.000000 0.000000 0.000000
		CHANNELS 3 Xrotation Yrotation Zrotation
		JOINT LeftUpLeg
		{
			OFFSET 18.735201 -5.666702 -4.541200
			CHANNELS 3 Xrotation Yrotation Zrotation
			JOINT LeftLeg
			{
				OFFSET -0.021200 -31.938179 0.493100
				CHANNELS 3 Xrotation Yrotation Zrotation
				JOINT LeftFoot
				{
					OFFSET 0.021200 -31.938179 -4.336299
					CHANNELS 3 Xrotation Yrotation Zrotation
					JOINT LeftToeBase
					{
						OFFSET 0.943001 -26.722000 15.023500
						CHANNELS 3 Xrotation Yrotation Zrotation
						End Site
						{
							OFFSET 0 0 0
						}
					}
				}
			}
		}
	}
	JOINT RightUpLeg_virtual
	{
		OFFSET 0.000000 0.000000 0.000000
		CHANNELS 3 Xrotation Yrotation Zrotation
		JOINT RightUpLeg
		{
			OFFSET -18.735201 -5.666702 -4.541200
			CHANNELS 3 Xrotation Yrotation Zrotation
			JOINT RightLeg
			{
				OFFSET 0.018946 -31.938133 0.493100
				CHANNELS 3 Xrotation Yrotation Zrotation
				JOINT RightFoot
				{
					OFFSET -0.018946 -31.938126 -4.336299
					CHANNELS 3 Xrotation Yrotation Zrotation
					JOINT RightToeBase
					{
						OFFSET -0.943001 -26.722004 15.023500
						CHANNELS 3 Xrotation Yrotation Zrotation
						End Site
						{
							OFFSET 0 0 0
						}
					}
				}
			}
		}
	}
	JOINT Hips_virtual
	{
		OFFSET 0.000000 0.000000 0.000000
		CHANNELS 3 Xrotation Yrotation Zrotation
		JOINT Hips
		{
			OFFSET -0.000000 -0.000000 -0.000000
			CHANNELS 3 Xrotation Yrotation Zrotation
			JOINT Spine
			{
				OFFSET 0.000000 10.199997 -0.299500
				CHANNELS 3 Xrotation Yrotation Zrotation
				JOINT Spine1
				{
					OFFSET 0.000000 11.900002 -1.516600
					CHANNELS 3 Xrotation Yrotation Zrotation
					JOINT Spine2
					{
						OFFSET 0.000000 13.600006 -2.842500
						CHANNELS 3 Xrotation Yrotation Zrotation
						JOINT Neck_virtual
						{
							OFFSET 0.000000 0.000000 0.000000
							CHANNELS 3 Xrotation Yrotation Zrotation
							JOINT Neck
							{
								OFFSET 0.000000 9.624100 -2.890100
								CHANNELS 3 Xrotation Yrotation Zrotation
								JOINT Head
								{
									OFFSET 0.000000 14.068802 -1.351900
									CHANNELS 3 Xrotation Yrotation Zrotation
									End Site
									{
										OFFSET 0 0 0
									}
								}
							}
						}
						JOINT LeftShoulder_virtual
						{
							OFFSET 0.000000 0.000000 0.000000
							CHANNELS 3 Xrotation Yrotation Zrotation
							JOINT LeftShoulder
							{
								OFFSET 15.263000 10.923401 -0.547700
								CHANNELS 3 Xrotation Yrotation Zrotation
								JOINT LeftArm
								{
									OFFSET 25.438599 -2.830597 -13.032500
									CHANNELS 3 Xrotation Yrotation Zrotation
									JOINT LeftForeArm
									{
										OFFSET 29.960503 0.000000 0.000000
										CHANNELS 3 Xrotation Yrotation Zrotation
										JOINT LeftHand
										{
											OFFSET 27.849251 0.000000 0.000000
											CHANNELS 3 Xrotation Yrotation Zrotation
											End Site
											{
												OFFSET 0 0 0
											}
										}
									}
								}
							}
						}
						JOINT RightShoulder_virtual
						{
							OFFSET 0.000000 0.000000 0.000000
							CHANNELS 3 Xrotation Yrotation Zrotation
							JOINT RightShoulder
							{
								OFFSET -15.263000 10.923401 -0.547700
								CHANNELS 3 Xrotation Yrotation Zrotation
								JOINT RightArm
								{
									OFFSET -25.438599 -2.830597 -13.032500
									CHANNELS 3 Xrotation Yrotation Zrotation
									JOINT RightForeArm
									{
										OFFSET -29.960503 0.000000 0.000000
										CHANNELS 3 Xrotation Yrotation Zrotation
										JOINT RightHand
										{
											OFFSET -27.849251 0.000000 0.000000
											CHANNELS 3 Xrotation Yrotation Zrotation
											End Site
											{
												OFFSET 0 0 0
											}
										}
									}
								}
							}
						}
					}
				}
			}
		}
	}
}
MOTION
Frames: 11
Frame Time: 0.03333333
1.213788 87.549728 9.290918 0.000000 0.000000 0.000000 -3.534837 -0.100961 -4.972992 -47.028854 10.572796 13.421158 50.014514 -5.822617 4.411465 -1.108535 -8.744357 -2.531094 0.000000 0.000000 0.000000 -6.377743 -16.300670 4.909504 -41.265769 -8.622097 -11.027251 42.315068 4.648410 -8.615346 -9.569268 5.962031 0.758388 0.000000 0.000000 0.000000 -3.168561 -0.373996 0.069807 -14.947463 4.426007 -0.718355 11.216285 -0.285954 0.368249 5.238965 -0.008543 -0.283260 0.000000 0.000000 0.000000 12.420958 0.569726 -0.856186 3.867145 0.376585 -0.423338 0.000000 0.000000 0.000000 7.919383 1.351890 -1.228808 3.665186 -0.826842 -11.346478 14.678075 -27.436691 -45.923866 17.917471 -58.607429 7.904946 0.000000 0.000000 0.000000 7.530436 -0.356280 0.850464 3.303206 4.336492 7.924886 6.494531 16.657421 48.659500 8.778261 58.745692 -0.984583 0.000000 0.000000 0.000000 
1.318364 87.190681 8.768780 0.000000 0.000000 0.000000 -4.361912 2.709591 -5.685994 -48.529051 11.306192 13.077894 49.076822 -6.470784 5.395093 -1.637578 -9.911099 -1.435585 0.000000 0.000000 0.000000 -6.861941 -18.998251 4.764176 -41.896777 -9.306279 -11.084729 43.132225 6.169178 -9.854232 -8.414195 8.314958 -0.420924 0.000000 0.000000 0.000000 -3.867301 -0.804564 -0.710129 -11.121454 2.814910 -0.583749 11.238761 -0.636878 0.247011 5.371195 0.063799 -0.038421 0.000000 0.000000 0.000000 12.652427 0.505009 -0.888389 4.041222 0.457794 -0.277448 0.000000 0.000000 0.000000 6.998053 1.326704 -1.112446 3.725440 -0.147371 -11.549535 16.353488 -27.565122 -45.585502 20.608783 -58.417242 10.033837 0.000000 0.000000 0.000000 7.637905 -0.424932 0.751870 3.879844 3.455838 8.221241 7.929696 18.218884 47.795038 9.360672 62.150828 -1.439486 0.000000 0.000000 0.000000 
0.691307 88.007881 8.771931 0.000000 0.000000 0.000000 -3.387853 6.062715 -5.963851 -47.615660 12.432229 13.068560 49.400870 -6.154748 6.198066 -0.920368 -10.039622 0.087415 0.000000 0.000000 0.000000 -7.776799 -23.633059 5.044072 -43.647846 -10.532852 -11.022467 44.039506 6.049896 -10.944100 -7.261589 8.862303 -2.466590 0.000000 0.000000 0.000000 -3.254167 -0.297023 0.141580 -13.951102 2.436766 -0.822863 12.224814 -0.325375 -0.353945 4.972829 0.255539 0.130570 0.000000 0.000000 0.000000 12.965047 0.557661 -0.986406 4.065458 0.533107 -0.317544 0.000000 0.000000 0.000000 6.625931 1.681997 -1.156502 3.172297 -0.702413 -12.604062 15.830773 -27.454526 -43.917584 21.640517 -57.656127 11.724922 0.000000 0.000000 0.000000 7.525017 -0.381691 0.402709 3.996356 2.109682 7.371317 8.657446 17.353347 47.679286 8.801664 60.850975 -1.485061 0.000000 0.000000 0.000000 
1.164801 88.339905 8.737207 0.000000 0.000000 0.000000 -3.351356 4.625712 -6.523845 -47.415269 12.361993 12.412183 50.584371 -5.786956 6.731558 0.246689 -9.985863 1.150243 0.000000 0.000000 0.000000 -8.755125 -26.283867 4.530533 -44.733159 -11.060791 -11.260585 43.162971 6.385096 -11.014701 -7.685307 9.351652 -2.565135 0.000000 0.000000 0.000000 -3.964274 0.932999 -0.220862 -13.024212 3.055559 -0.396680 11.413494 -0.996345 0.259831 5.335591 0.304343 -0.178749 0.000000 0.000000 0.000000 12.812707 0.304738 -1.019982 3.906466 0.452433 -0.344376 0.000000 0.000000 0.000000 7.260087 1.449763 -1.230173 2.824625 -0.699184 -12.337792 16.728277 -29.753240 -43.846994 22.463802 -59.359139 12.554332 0.000000 0.000000 0.000000 7.714371 -0.496124 0.362959 3.291559 1.018830 8.173750 8.387916 16.606352 46.836475 9.138538 61.975217 -2.026081 0.000000 0.000000 0.000000 
1.189371 88.798264 9.619982 0.000000 0.000000 0.000000 -3.952534 6.608853 -6.106364 -48.067299 12.564836 12.835498 51.902519 -6.317420 7.225622 1.239636 -10.821336 1.432376 0.000000 0.000000 0.000000 -9.139843 -31.011344 5.947218 -46.039156 -12.880313 -10.027908 42.276033 6.409365 -11.102383 -8.308178 9.361277 -2.866741 0.000000 0.000000 0.000000 -3.281093 2.141883 -0.250892 -16.337621 2.537564 0.222192 12.406948 -1.008102 -0.014561 5.019308 0.076859 0.169036 0.000000 0.000000 0.000000 12.666903 0.156821 -0.938755 3.514210 0.396452 -0.246059 0.000000 0.000000 0.000000 7.514216 1.393282 -1.293237 2.708455 0.381158 -13.117438 15.684565 -29.525692 -43.121870 22.341037 -61.177731 13.252609 0.000000 0.000000 0.000000 7.968432 -0.473029 0.439252 3.566516 1.349884 7.747418 9.265770 15.095382 47.588346 8.018360 62.966804 -0.632636 0.000000 0.000000 0.000000 
0.710109 88.813309 10.708117 0.000000 0.000000 0.000000 -4.888492 6.368368 -6.530641 -49.250633 12.430458 12.415412 51.859239 -6.296505 7.815053 1.166341 -11.054683 2.343504 0.000000 0.000000 0.000000 -8.753234 -29.865460 6.309571 -45.496997 -12.705950 -9.646753 42.995375 7.039248 -11.217936 -7.794624 10.119894 -2.536813 0.000000 0.000000 0.000000 -4.543100 -1.447323 -0.435088 -13.501722 2.925213 -2.265179 11.974426 -1.720813 0.588405 5.932450 0.172185 0.430992 0.000000 0.000000 0.000000 12.938565 0.359759 -0.728933 4.008066 0.382467 -0.118536 0.000000 0.000000 0.000000 7.598235 1.307833 -1.538113 2.933547 -0.020692 -13.574229 18.437104 -29.503846 -42.396419 24.823042 -60.935451 14.857670 0.000000 0.000000 0.000000 8.366772 -0.522817 0.572825 3.585226 0.787452 8.076720 7.777996 15.527790 48.304884 8.581351 61.226362 -0.655322 0.000000 0.000000 0.000000 
0.253824 89.251350 9.333364 0.000000 0.000000 0.000000 -5.015825 8.453840 -6.812162 -49.930100 12.983263 12.473075 52.391823 -6.442471 7.507901 1.364869 -11.047682 1.633735 0.000000 0.000000 0.000000 -7.478506 -29.383368 7.092213 -44.256317 -12.855425 -9.229155 43.821934 6.615254 -11.683119 -7.084152 9.955396 -3.607773 0.000000 0.000000 0.000000 -3.824267 0.180900 -0.166791 -15.027034 3.787736 -2.342173 12.243532 -0.949505 0.406818 6.650484 -0.269607 0.346382 0.000000 0.000000 0.000000 13.129141 0.403200 -0.711116 3.928718 0.350232 -0.154771 0.000000 0.000000 0.000000 7.477253 1.236079 -1.300284 2.641385 -1.131470 -13.295791 21.412611 -29.739296 -40.885482 25.749426 -61.635245 15.356202 0.000000 0.000000 0.000000 8.486055 -0.505597 0.701884 3.479266 -0.187356 8.147150 8.116128 14.818994 48.177057 8.320316 60.491570 -0.315652 0.000000 0.000000 0.000000 
1.300385 89.256386 10.406202 0.000000 0.000000 0.000000 -4.893929 9.210426 -6.938903 -49.720905 13.308069 12.264953 51.641281 -6.270620 7.585518 0.936061 -10.863201 1.931843 0.000000 0.000000 0.000000 -7.820532 -31.411347 7.751494 -44.924524 -13.711215 -8.495780 44.786961 6.733879 -11.298765 -6.190462 10.066190 -2.939097 0.000000 0.000000 0.000000 -3.728817 -0.665785 -0.150577 -15.822826 5.905907 -1.421479 11.929285 -1.292873 0.426002 5.757340 -0.426912 -0.008378 0.000000 0.000000 0.000000 12.923783 0.499374 -0.798954 3.779711 0.306846 -0.034007 0.000000 0.000000 0.000000 7.409197 0.963656 -1.436671 2.120505 -0.598873 -14.050424 21.217084 -29.306976 -42.091748 26.573853 -63.663182 16.673165 0.000000 0.000000 0.000000 8.612750 -0.433887 0.453881 2.711146 -0.542287 8.221725 9.392128 11.857927 48.186189 7.780523 59.158516 0.391991 0.000000 0.000000 0.000000 
1.243952 89.232315 10.590376 0.000000 0.000000 0.000000 -4.952621 10.693803 -7.041325 -49.762819 13.625144 12.254411 51.196376 -6.169998 7.625085 0.427567 -10.719569 2.042725 0.000000 0.000000 0.000000 -7.839254 -30.683734 7.334274 -44.486999 -13.429876 -8.635473 43.637092 7.010009 -11.459231 -7.116867 10.305520 -3.037608 0.000000 0.000000 0.000000 -3.312595 0.018143 0.134809 -17.460371 5.897020 -1.968446 11.514936 -1.036574 0.325601 5.660721 -0.262719 0.165815 0.000000 0.000000 0.000000 12.892980 0.626766 -0.851268 3.757220 0.271476 -0.093960 0.000000 0.000000 0.000000 7.537757 1.117866 -1.365202 2.341036 -0.788061 -13.745936 21.660548 -28.557912 -41.722504 26.227650 -62.959611 16.151201 0.000000 0.000000 0.000000 8.484528 -0.308490 0.556599 2.767050 -0.107789 8.212871 8.818110 13.055605 48.334595 7.991706 58.923017 0.274897 0.000000 0.000000 0.000000 
0.995733 89.394196 10.465248 0.000000 0.000000 0.000000 -5.529802 11.633616 -6.748470 -50.349388 13.656470 12.419224 50.583445 -6.248724 7.460243 0.037521 -10.706868 1.769997 0.000000 0.000000 0.000000 -7.100430 -30.881146 7.655513 -43.671977 -13.646585 -8.456200 44.612617 7.074215 -11.363900 -6.659093 10.372633 -2.651787 0.000000 0.000000 0.000000 -2.755246 0.546137 0.438735 -16.032459 6.333289 -1.733127 11.504308 -1.025858 0.348832 5.623883 -0.285926 0.154893 0.000000 0.000000 0.000000 12.799468 0.559064 -0.689389 3.712370 0.251017 -0.058924 0.000000 0.000000 0.000000 7.636751 1.056909 -1.213923 2.474364 -0.495681 -13.936297 21.708341 -28.481708 -41.850058 26.149733 -63.851641 16.190946 0.000000 0.000000 0.000000 8.637479 -0.320781 0.658502 2.597415 -0.614302 8.078084 8.018231 11.626564 50.040561 7.303812 59.361557 1.225530 0.000000 0.000000 0.000000 
1.064773 89.245529 10.435810 0.000000 0.000000 0.000000 -6.142897 12.419671 -6.959065 -51.275753 13.831422 12.318912 50.215332 -6.126621 7.361713 -0.305451 -10.486151 1.702048 0.000000 0.000000 0.000000 -8.167125 -30.371973 6.895607 -44.727326 -13.182423 -8.954254 43.426428 7.223233 -11.439451 -7.755404 10.452495 -2.728705 0.000000 0.000000 0.000000 -2.654785 1.219672 0.331409 -16.340522 5.709722 -2.428192 11.613532 -0.996334 0.347348 5.525857 -0.260016 0.306147 0.000000 0.000000 0.000000 12.846261 0.459036 -0.695360 3.714150 0.223479 -0.049979 0.000000 0.000000 0.000000 7.579880 0.973358 -1.115634 2.239259 -0.379657 -13.826256 19.624814 -28.290292 -42.881051 25.984587 -64.804671 16.358458 0.000000 0.000000 0.000000 8.604715 -0.332907 0.650780 2.695296 -0.743699 8.442612 7.630323 11.449911 49.597337 6.868829 60.411090 1.077476 0.000000 0.000000 0.000000 
